<svg xmlns="http://www.w3.org/2000/svg" width="947" height="49" viewBox="0 0 947 49" fill="none">
<g clip-path="url(#clip0_54335_35433)">
<path d="M-206 49.0555L1248 49.0557L1248 22.2728C1240.46 31.4788 1229.96 36.3046 1216.52 36.75L1215.77 36.75C1211.33 33.3349 1205.83 31.4788 1199.28 31.1818L1192.54 31.1818C1188.89 32.444 1185.67 31.3674 1182.87 27.9523C1182.79 27.8409 1182.32 28.0265 1181.45 28.5091C1179.32 29.5485 1177.52 28.5834 1176.05 25.6137C1171.8 25.6137 1167.57 25.4281 1163.35 25.0569C1163.32 25.0569 1163.31 24.8713 1163.31 24.5C1150.37 23.6834 1139.6 19.6743 1131.01 12.4728C1130.81 12.3243 1130.58 12.2501 1130.33 12.2501C1125.86 13.4008 1122.07 15.5353 1118.98 18.6535C1118.8 18.8391 1118.59 18.9319 1118.34 18.9319C1114.59 17.447 1111.99 14.1804 1110.54 9.13189C1110.49 8.98341 1110.34 8.90916 1110.09 8.90916C1103.82 9.68871 1098.89 8.76068 1095.29 6.12508C1093.54 4.82584 1092.22 4.99289 1091.32 6.62621C1091.1 7.03455 1090.86 7.42432 1090.61 7.79553C1088.73 9.09477 1086.26 9.28037 1083.19 8.35235C1083.14 8.35235 1083.11 8.16674 1083.11 7.79553C1078.77 8.35234 1074.07 9.18757 1069.02 10.3012C1064.68 11.2292 1061.14 11.6004 1058.42 11.4148C1057.32 11.3406 1056.56 10.5054 1056.13 8.90916C1053.01 11.2107 1050.27 12.1387 1047.93 11.6932C1047.9 11.6932 1047.89 11.5076 1047.89 11.1364L1041.89 11.1364C1040.24 13.1781 1037.73 13.5864 1034.36 12.3614C1034.13 12.2872 1033.9 12.2501 1033.65 12.2501C1032.52 13.5493 1030.77 13.9391 1028.4 13.4194C1028.15 13.3823 1027.9 13.3637 1027.65 13.3637C1020.83 14.7 1013.84 15.7951 1006.67 16.6489C1006.42 16.686 1006.17 16.7046 1005.92 16.7046C1004.79 18.0038 1003.04 18.3936 1000.67 17.8739C1000.42 17.8368 1000.17 17.8182 999.921 17.8182C994.299 18.0038 989.053 18.7091 984.181 19.9341C983.932 20.0084 983.682 20.0455 983.432 20.0455C982.033 21.3447 980.034 21.7345 977.436 21.2148C977.186 21.1777 976.936 21.1591 976.687 21.1591L971.44 21.1591C970.316 22.4584 968.567 22.8481 966.194 22.3284C965.944 22.2913 965.694 22.2728 965.444 22.2728L959.448 22.2728C955.326 23.572 950.592 23.7576 945.246 22.8296C945.221 22.8296 945.208 22.644 945.208 22.2728L936.964 22.2728C934.715 22.2728 932.479 22.0871 930.256 21.7159C930.231 21.7159 930.219 21.5303 930.219 21.1591C926.996 21.4932 924.235 21.1777 921.937 20.2125C921.712 20.1012 921.475 20.0455 921.225 20.0455C919.226 20.0455 917.24 19.8599 915.266 19.4887C915.241 19.4887 915.229 19.3031 915.229 18.9318C899.415 16.4447 883.925 13.4936 868.761 10.0785C868.511 10.0413 868.261 10.0228 868.011 10.0228L862.015 10.0228C857.244 14.7 853.884 14.4216 851.935 9.18755C850.811 6.14362 849.674 6.05082 848.525 8.90914C845.977 15.3311 843.528 14.9228 841.18 7.68415C841.08 7.38718 841.03 7.05308 841.03 6.68188C834.559 10.5054 828.101 10.7095 821.656 7.29437C821.581 7.25725 821.543 7.05308 821.543 6.68187C816.272 9.98565 810.276 12.1944 803.556 13.308C803.306 13.3451 803.056 13.3637 802.806 13.3637C800.808 13.3637 798.821 13.1781 796.848 12.8069C796.823 12.8069 796.81 12.6212 796.81 12.25C790.615 15.8508 785.793 14.83 782.345 9.18754C782.245 9.00194 782.07 8.90914 781.821 8.90914C777.349 6.34778 774.151 7.51709 772.227 12.4171C772.127 12.6769 772.077 12.9925 772.077 13.3637C769.279 14.8114 767.418 13.011 766.494 7.96255C766.469 7.85118 766.331 7.7955 766.081 7.7955C760.76 8.68641 755.764 9.76292 751.092 11.025C750.842 11.0993 750.592 11.1364 750.342 11.1364C744.371 7.46141 738.675 7.29436 733.254 10.6353C732.679 11.0065 732.38 11.9159 732.355 13.3637C729.681 14.997 727.595 13.9576 726.096 10.2455C726.021 10.097 725.859 10.0228 725.609 10.0228C718.689 11.025 711.444 11.9531 703.874 12.8068L703.874 12.25C701.351 7.38716 697.654 6.83035 692.782 10.5796C688.435 13.9205 683.676 16.5375 678.504 18.4307C673.633 20.2125 668.099 21.122 661.903 21.1591C657.531 22.4583 652.547 22.6439 646.951 21.7159C646.926 21.7159 646.913 21.5303 646.913 21.1591L639.419 21.1591C637.17 21.1591 634.934 20.9735 632.711 20.6023C632.686 20.6023 632.673 20.4167 632.673 20.0455L630.425 20.0455C628.426 20.0455 626.44 19.8599 624.466 19.4886C624.441 19.4886 624.429 19.303 624.429 18.9318C621.456 18.8947 618.708 18.5606 616.185 17.9296C615.935 17.8553 615.685 17.8182 615.435 17.8182C613.436 17.8182 611.45 17.6326 609.477 17.2614C609.452 17.2614 609.439 17.0758 609.439 16.7046C604.792 18.1152 601.52 18.1894 599.621 16.9273C599.421 16.7788 599.196 16.7046 598.946 16.7046L592.951 16.7046C586.38 14.7371 581.446 15.5909 578.148 19.2659C578.023 19.4144 577.961 19.6742 577.961 20.0455C575.912 19.0061 574.113 17.614 572.565 15.8693C572.415 15.6837 572.215 15.5909 571.965 15.5909C565.944 15.1826 561.397 16.9458 558.324 20.8807C558.174 21.0663 557.975 21.1591 557.725 21.1591C555.201 19.7114 552.753 18.078 550.38 16.2591C550.28 16.1849 550.23 15.9621 550.23 15.5909C545.058 14.5886 541.486 15.9807 539.512 19.767C539.412 19.9526 539.237 20.0454 538.988 20.0454C536.914 21.2704 534.641 20.9735 532.167 19.1545C531.967 19.0061 531.743 18.9318 531.493 18.9318C525.647 22.0129 520.638 22.7924 516.466 21.2704C516.241 21.1962 516.003 21.1591 515.754 21.1591C513.58 14.8485 509.37 13.4936 503.125 17.0943C501.551 17.9852 500.514 19.7114 500.014 22.2727C497.591 23.8318 494.843 22.347 491.77 17.8182C491.42 17.2985 491.071 17.5955 490.721 18.7091C490.421 19.6 490.021 20.4167 489.522 21.1591C487.873 22.4583 485.624 22.8481 482.776 22.3284C482.526 22.2913 482.277 22.2727 482.027 22.2727C480.403 23.2379 478.404 23.6276 476.031 23.442C475.781 23.4049 475.531 23.3863 475.281 23.3863C474.157 24.6856 472.408 25.0754 470.035 24.5557C469.785 24.5185 469.535 24.5 469.286 24.5L461.791 24.5C459.792 22.6439 457.768 20.8621 455.72 19.1545C455.52 19.0061 455.295 18.9318 455.045 18.9318C448.3 19.3401 443.004 21.8458 439.156 26.4488C439.006 26.6344 438.807 26.7272 438.557 26.7272C435.309 25.9848 432.748 24.2216 430.875 21.4375C430.75 21.2519 430.562 21.1591 430.312 21.1591C423.542 22.5326 417.296 22.9223 411.575 22.3284C411.325 22.2913 411.076 22.2727 410.826 22.2727C409.702 23.5719 407.953 23.9617 405.579 23.442C405.33 23.4049 405.08 23.3863 404.83 23.3863L393.588 23.3863C392.189 24.6856 390.19 25.0753 387.592 24.5557C387.342 24.5185 387.092 24.5 386.842 24.5L376.349 24.5C371.228 25.7992 365.495 25.9848 359.149 25.0568C359.124 25.0568 359.111 24.8712 359.111 24.5L355.364 24.5C353.09 24.5 350.855 24.3144 348.656 23.9432C348.631 23.9432 348.619 23.7575 348.619 23.3863C339.8 21.0106 332.055 18.8204 325.385 16.8159C325.135 16.7417 324.885 16.7045 324.635 16.7045C320.588 10.0599 316.291 9.59584 311.744 15.3125C311.594 15.4981 311.394 15.5909 311.144 15.5909C307.897 10.4682 304.574 10.7466 301.176 16.4261C301.076 16.6117 300.901 16.7045 300.652 16.7045C299.053 9.39167 296.867 7.99963 294.094 12.5284C293.969 12.714 293.906 12.9924 293.906 13.3636C288.16 13.0667 283.176 13.5492 278.954 14.8113C278.404 14.9598 277.892 15.2197 277.418 15.5909C274.295 16.8901 270.56 17.0757 266.213 16.1477C266.188 16.1477 266.175 15.9621 266.175 15.5909C262.503 8.01818 258.193 8.29659 253.247 16.4261C253.122 16.6117 252.934 16.7045 252.685 16.7045C249.087 15.3682 246.039 13.2337 243.541 10.3011C243.391 10.1155 243.191 10.0227 242.941 10.0227C237.62 9.91136 233.173 10.8765 229.6 12.9182C229.026 13.2523 228.726 14.1432 228.701 15.5909C226.003 15.8136 223.467 13.9761 221.094 10.0784C220.344 8.81628 220.132 9.16894 220.457 11.1364C217.908 16.1477 214.911 16.1477 211.463 11.1364C210.963 10.3939 210.214 10.0227 209.214 10.0227L206.966 10.0227C204.543 12.2129 202.332 12.7882 200.333 11.7488C200.258 11.7117 200.221 11.5076 200.221 11.1364L185.231 11.1364C183.582 12.4356 181.334 12.8254 178.486 12.3057C178.236 12.2685 177.986 12.25 177.736 12.25C164.895 15.8879 153.153 16.2962 142.51 13.475C142.261 13.4007 142.011 13.3636 141.761 13.3636L135.765 13.3636C132.192 15.1083 128.445 16.556 124.523 17.7068C124.273 17.781 124.023 17.8181 123.773 17.8181C118.827 17.0015 114.629 15.0155 111.182 11.8602C111.082 11.7488 111.032 11.5076 111.032 11.1363C105.561 8.05529 100.364 8.57499 95.4426 12.6954C95.3427 12.7697 95.2927 12.9924 95.2927 13.3636C92.7946 9.6515 89.2969 7.44279 84.8001 6.73749C84.5502 6.70037 84.3003 6.68181 84.0505 6.68181C80.7777 11.3962 77.4675 11.489 74.1199 6.96022C73.9949 6.77461 73.8075 6.68181 73.5577 6.68181C69.3856 7.42423 65.6508 6.08787 62.353 2.67273C61.3287 1.63333 60.0796 0.965152 58.6056 0.668181C58.3307 0.59394 58.0684 0.371215 57.8186 2.76256e-06L53.3217 2.36943e-06C51.0482 7.34999 45.7893 10.431 37.5449 9.24316C32.5984 8.50074 28.114 9.50301 24.0918 12.25C22.8176 19.7484 20.2568 20.5837 16.4095 14.7556C16.2847 14.57 16.0973 14.4772 15.8474 14.4772C13.8488 16.7045 12.1625 19.3587 10.7885 22.4397C10.6635 22.6996 10.6011 23.0151 10.6011 23.3863C5.82935 23.7204 1.80713 25.131 -1.4657 27.6181C-1.66553 27.7666 -1.89038 27.8408 -2.14026 27.8408C-3.2644 29.1401 -5.01318 29.5298 -7.38659 29.0102C-7.63647 28.973 -7.88623 28.9545 -8.13611 28.9545C-11.9585 31.0333 -15.7434 30.3651 -19.4908 26.9499C-19.6656 26.8014 -19.878 26.7272 -20.1278 26.7272C-24.175 27.5067 -27.6976 28.9173 -30.6956 30.959C-30.8954 31.1075 -31.1202 31.1817 -31.3701 31.1817C-34.0183 32.8893 -35.8795 31.4601 -36.9537 26.8942C-36.9788 26.7829 -37.1162 26.7272 -37.366 26.7272C-44.2612 22.978 -49.3328 23.9988 -52.5806 29.7897C-52.6805 29.9753 -52.8553 30.0681 -53.1051 30.0681C-54.5041 31.3673 -56.4779 31.5715 -59.0261 30.6806C-59.076 30.6435 -59.1011 30.4393 -59.1011 30.0681C-64.7721 27.3211 -70.7681 25.131 -77.0886 23.4977C-77.3385 23.4234 -77.5884 23.3863 -77.8381 23.3863C-81.3857 27.7666 -85.358 29.437 -89.755 28.3976C-89.8049 28.3976 -89.83 28.212 -89.83 27.8408C-93.3525 22.0128 -97.3748 21.5859 -101.897 26.5602C-103.396 28.1935 -105.119 28.2492 -107.068 26.7272C-109.566 26.7272 -112.052 26.5416 -114.525 26.1704C-114.55 26.1704 -114.563 25.9848 -114.563 25.6136C-116.562 24.8711 -118.523 23.9617 -120.446 22.8852C-120.521 22.848 -120.559 22.6439 -120.559 22.2727L-129.553 22.2727C-132.301 28.2492 -135.898 28.4348 -140.345 22.8295C-141.994 20.7507 -143.643 20.5651 -145.292 22.2727C-147.54 27.7295 -150.114 27.8223 -153.011 22.5511C-153.111 22.3655 -153.286 22.2727 -153.536 22.2727L-162.53 22.2727C-164.479 21.9386 -166.002 22.2355 -167.102 23.1636C-167.302 23.312 -167.526 23.3863 -167.776 23.3863C-169.175 24.6855 -171.174 25.0753 -173.772 24.5556C-174.022 24.5185 -174.272 24.4999 -174.522 24.4999C-179.094 24.7598 -183.341 25.4651 -187.263 26.6158C-187.513 26.6901 -187.763 26.7272 -188.012 26.7272C-189.411 28.0264 -191.385 28.2306 -193.933 27.3397C-193.983 27.3026 -194.008 27.0984 -194.008 26.7272C-198.605 26.5416 -202.39 25.131 -205.363 22.4954C-205.538 22.3469 -205.75 22.2727 -206 22.2727L-206 23.3863C-205.975 31.9613 -205.975 40.5177 -206 49.0555Z" fill="#3c6fa1"/>
</g>
<defs fill="#000000">
<clipPath id="clip0_54335_35433" fill="#000000">
<rect width="1454" height="48.9999" fill="white" transform="translate(1248 49) rotate(-180)"/>
</clipPath>
</defs>
</svg>